<svg width="54" height="24" viewBox="0 0 54 24" fill="none" xmlns="http://www.w3.org/2000/svg">
<path d="M7.5335 16.8731C10.0409 16.8731 11.9321 14.5691 11.9321 11.761C11.9321 8.92904 10.0409 6.62505 7.5335 6.62505C5.04733 6.62505 3.04989 8.92904 3.04989 11.761C3.04989 14.5691 5.04733 16.8731 7.5335 16.8731ZM14.5457 11.7851C14.5457 16.1531 11.4221 19.7051 7.5335 19.7051C3.64487 19.7051 0.5 16.1531 0.5 11.7851C0.5 7.36908 3.64487 3.79305 7.5335 3.79305C9.44593 3.79305 11.0396 4.99306 11.8896 5.90507V0.00106049H14.5457V11.7851Z" fill="url(#paint0_linear_2230_43983)"/>
<path d="M15.7322 23.76C15.8597 21.48 16.8797 19.464 18.3884 18.168C16.7734 16.8 15.7109 14.544 15.7109 12.096V3.79939H18.3671V12.264C18.3671 14.784 20.1733 16.872 22.362 16.872C24.5931 16.872 26.3356 14.832 26.3356 12.264V10.3879H28.9917V12.096C28.9917 16.272 25.9531 19.704 22.362 19.704C20.237 19.704 18.4734 21.336 18.4096 24H15.7322V23.76Z" fill="url(#paint1_linear_2230_43983)"/>
<path d="M51.4583 3.79226C47.8483 3.79226 44.9219 6.83314 44.9219 10.5843V19.4883H47.578V11.3043C47.578 9.02429 48.7255 6.62427 52.1466 6.62427H53.7616V3.79226H51.4583Z" fill="url(#paint2_linear_2230_43983)"/>
<path d="M43.8499 10.3876C43.2649 6.6564 40.3715 3.81158 36.9032 3.81158C33.7857 3.81158 31.1267 6.1367 30.212 9.33853H33.0408C33.7655 7.73538 35.1926 6.6436 36.9032 6.6436C38.9834 6.6436 40.6383 8.23005 41.1422 10.3876C41.2457 10.8306 41.3018 11.2972 41.3018 11.7796C41.3018 12.253 41.2469 12.7115 41.1455 13.1476C40.6454 15.2984 38.9879 16.8916 36.9032 16.8916C35.3965 16.8916 34.1092 16.045 33.3285 14.7531C33.0335 14.2649 32.85 13.7158 32.7809 13.1476L40.3047 13.1476H40.8577L36.8147 10.3876H32.3975H29.6899H26.8359V10.6117L26.836 12.9231L26.8359 13.1476L29.6874 13.1476L30.0204 13.1476C30.0331 13.4054 30.0687 13.6617 30.1308 13.9118C30.9613 17.2534 33.6893 19.7236 36.9032 19.7236C40.3768 19.7236 43.2736 16.8701 43.8524 13.1476C43.9216 12.7028 43.9579 12.2458 43.9579 11.7796C43.9579 11.3049 43.9208 10.8398 43.8499 10.3876Z" fill="url(#paint3_linear_2230_43983)"/>
<defs>
<linearGradient id="paint0_linear_2230_43983" x1="7.52287" y1="19.7051" x2="7.52287" y2="0.00106049" gradientUnits="userSpaceOnUse">
<stop stop-color="#2E90FA"/>
<stop offset="1" stop-color="#1570EF"/>
</linearGradient>
<linearGradient id="paint1_linear_2230_43983" x1="22.3513" y1="24" x2="22.3513" y2="3.79939" gradientUnits="userSpaceOnUse">
<stop stop-color="#2E90FA"/>
<stop offset="1" stop-color="#1570EF"/>
</linearGradient>
<linearGradient id="paint2_linear_2230_43983" x1="49.3417" y1="19.4883" x2="49.3417" y2="3.79226" gradientUnits="userSpaceOnUse">
<stop stop-color="#2E90FA"/>
<stop offset="1" stop-color="#1570EF"/>
</linearGradient>
<linearGradient id="paint3_linear_2230_43983" x1="35.3969" y1="19.7236" x2="35.3969" y2="3.81158" gradientUnits="userSpaceOnUse">
<stop stop-color="#2E90FA"/>
<stop offset="1" stop-color="#1570EF"/>
</linearGradient>
</defs>
</svg>
