<svg width="32" height="32" viewBox="0 0 32 32" fill="none" xmlns="http://www.w3.org/2000/svg">
<path d="M31.7981 13.8337C30.7048 6.86035 25.2972 1.54354 18.8151 1.54354C12.9886 1.54354 8.01926 5.88907 6.30965 11.8731H11.5965C12.9509 8.87689 15.6181 6.83643 18.8151 6.83643C22.703 6.83643 25.7959 9.8014 26.7376 13.8337C26.9309 14.6617 27.0358 15.5336 27.0358 16.4353C27.0358 17.32 26.9332 18.177 26.7437 18.992C25.8091 23.0118 22.7113 25.9894 18.8151 25.9894C15.9992 25.9894 13.5933 24.4071 12.1342 21.9925C11.5829 21.0802 11.24 20.054 11.1108 18.9921L25.1724 18.992H26.2058L18.6496 13.8337H10.3943H5.33393H0V14.2525L4.32189e-05 18.5725L0 18.9921L5.32924 18.992L5.95148 18.9921C5.97533 19.4739 6.04181 19.9528 6.15798 20.4203C7.71013 26.6654 12.8085 31.2822 18.8151 31.2822C25.3071 31.2822 30.721 25.9491 31.8028 18.9921C31.9321 18.1608 32 17.3066 32 16.4353C32 15.5481 31.9306 14.6788 31.7981 13.8337Z" fill="url(#paint0_linear_2399_41887)"/>
<defs>
<linearGradient id="paint0_linear_2399_41887" x1="16" y1="31.2822" x2="16" y2="1.54354" gradientUnits="userSpaceOnUse">
<stop stop-color="#2E90FA"/>
<stop offset="1" stop-color="#1570EF"/>
</linearGradient>
</defs>
</svg>
