<?xml version="1.0" encoding="utf-8"?>
<!-- Generator: Adobe Illustrator 25.0.0, SVG Export Plug-In . SVG Version: 6.00 Build 0)  -->
<svg version="1.1" id="Layer_1" xmlns="http://www.w3.org/2000/svg" xmlns:xlink="http://www.w3.org/1999/xlink" x="0px" y="0px"
	 viewBox="0 0 256 256" style="enable-background:new 0 0 256 256;" xml:space="preserve">
<style type="text/css">
	.st0{fill:#1A5AFF;}
	.st1{fill:#FFFFFF;}
</style>
<path class="st0" d="M128,0L128,0c70.7,0,128,57.3,128,128l0,0c0,70.7-57.3,128-128,128l0,0C57.3,256,0,198.7,0,128l0,0
	C0,57.3,57.3,0,128,0z"/>
<path class="st1" d="M175.2,76c-6.5,0-12.5,3.5-15.8,9.1L118.6,156H88.1v36h41c6.5,0,12.5-3.5,15.7-9.1l40.9-70.9H216V76H175.2z"/>
<path class="st1" d="M66.8,192L36,174l51-89c3.2-5.6,9.1-9,15.6-9H143v36h-30.1L66.8,192z"/>
<path class="st1" d="M39,76v36c19.9,0,36-16.1,36-36H39z"/>
<path class="st1" d="M198,170c9.9,0,18-8.1,18-18s-8-18-18-18c-9.9,0-18,8.1-18,18S188.1,170,198,170z"/>
</svg>
